<?xml version="1.0" encoding="UTF-8" standalone="no"?>
<svg
   xmlns:dc="http://purl.org/dc/elements/1.1/"
   xmlns:cc="http://creativecommons.org/ns#"
   xmlns:rdf="http://www.w3.org/1999/02/22-rdf-syntax-ns#"
   xmlns:svg="http://www.w3.org/2000/svg"
   xmlns="http://www.w3.org/2000/svg"
   xmlns:sodipodi="http://sodipodi.sourceforge.net/DTD/sodipodi-0.dtd"
   xmlns:inkscape="http://www.inkscape.org/namespaces/inkscape"
   inkscape:version="1.0 (4035a4fb49, 2020-05-01)"
   sodipodi:docname="Logo Rugby World Cup (générique 2023).svg"
   id="svg32"
   height="1357.0378"
   width="1091.1719"
   viewBox="0 0 1091.1719 1357.0378"
   version="1.2">
  <metadata
     id="metadata38">
    <rdf:RDF>
      <cc:Work
         rdf:about="">
        <dc:format>image/svg+xml</dc:format>
        <dc:type
           rdf:resource="http://purl.org/dc/dcmitype/StillImage" />
        <dc:title>RWC_MASTERBRAND_logo_green_RGB-svg</dc:title>
      </cc:Work>
    </rdf:RDF>
  </metadata>
  <defs
     id="defs36" />
  <sodipodi:namedview
     inkscape:current-layer="svg32"
     inkscape:window-maximized="1"
     inkscape:window-y="-9"
     inkscape:window-x="-9"
     inkscape:cy="678.66585"
     inkscape:cx="545.59853"
     inkscape:zoom="0.43229167"
     fit-margin-bottom="0"
     fit-margin-right="0"
     fit-margin-left="0"
     fit-margin-top="0"
     showgrid="false"
     id="namedview34"
     inkscape:window-height="1001"
     inkscape:window-width="1920"
     inkscape:pageshadow="2"
     inkscape:pageopacity="0"
     guidetolerance="10"
     gridtolerance="10"
     objecttolerance="10"
     borderopacity="1"
     bordercolor="#666666"
     pagecolor="#ffffff" />
  <title
     id="title25">RWC_MASTERBRAND_logo_green_RGB-svg</title>
  <style
     id="style27">
		.s0 { fill: #000000 } 
	</style>
  <g
     transform="translate(-414.40147,-281.33415)"
     id="g30">
    <path
       d="m 1369.6,1194.9 c -66.6,115.8 -208.5,294 -322.9,320 -68.1,15.9 -140.5,-40.5 -168,-124.5 -24.6,-81.1 -11.6,-149.2 31.9,-172.3 46.3,-24.6 111.5,14.5 144.8,88.3 h 2.9 l 31.9,-95.6 c -8.7,-10.1 -24.6,-26.1 -43.4,-34.8 h 8.7 c 33.3,0 52.1,-13 63.7,-47.8 l 97,-291.1 c 10.2,-31.9 21.7,-50.7 37.7,-57.9 v -5.8 h -95.6 c -30.4,0 -49.2,-14.5 -79.7,-60.8 l -76.7,-117.3 c 56.5,-10.1 94.1,-53.6 94.1,-108.6 0,-68.1 -53.6,-107.2 -149.2,-107.2 h -62.3 c -2.9,0 -2.9,-2.9 0,-4.3 162.2,-98.5 328.7,-123.1 446,-56.5 207.1,117.5 243.3,522.9 39.1,876.2 z M 551.5,722.9 C 615.2,612.8 700.7,514.4 789,443.4 c 31.9,-24.6 46.3,-20.3 46.3,5.8 v 263.5 c 0,42 -10.1,60.8 -34.8,60.8 H 668.8 v 5.8 c 11.6,4.3 23.2,18.8 34.8,57.9 L 810.8,1176 h 10.1 c 40.5,0 50.7,-8.7 63.7,-47.8 L 954,914 h 1.4 l 85.4,259.2 c -20.3,-7.2 -43.4,-11.6 -68.1,-11.6 -165.1,0 -207.1,182.5 -166.5,285.3 31.9,79.6 107.2,128.9 185.4,118.7 8.7,-1.4 5.8,1.5 0,4.3 -162.2,85.4 -305.5,85.4 -401.1,30.4 C 382,1480.2 345.8,1077.7 551.5,722.9 Z M 786,837.3 c -11.6,-39.1 0,-57.9 39.1,-57.9 H 886 c 18.8,0 27.5,-8.7 27.5,-27.5 V 582.4 h 1.4 l 92.7,153.5 c 21.7,36.2 37.6,43.4 82.5,43.4 h 43.4 c 27.5,0 34.8,18.8 23.2,57.9 l -69.5,228.8 h -1.4 l -79.6,-236 h -26.1 c -29,0 -55,17.4 -68.1,59.4 l -57.9,176.7 h -1.4 z m 231.7,-338.9 c 0,40.5 -37.6,72.4 -84,72.4 H 913.4 V 428.9 h 33.3 c 45,0 71,24.6 71,69.5 z"
       class="s0"
       fill-rule="evenodd"
       id="Layer" />
  </g>
</svg>
